<?xml version="1.0" encoding="UTF-8"?>
<svg width="930px" height="930px" viewBox="0 0 930 930" version="1.1" xmlns="http://www.w3.org/2000/svg" xmlns:xlink="http://www.w3.org/1999/xlink">
    <title>Group 13</title>
    <g id="Page-1" stroke="none" stroke-width="1" fill="none" fill-rule="evenodd">
        <g id="Group-13" transform="translate(14.000000, 14.000000)" fill="#2D1010">
            <path d="M451,-13.5 C194.473671,-13.5 -13.5,194.473671 -13.5,451 C-13.5,707.526329 194.473671,915.5 451,915.5 C707.526329,915.5 915.5,707.526329 915.5,451 C915.5,194.473671 707.526329,-13.5 451,-13.5 Z M451,13.5 C692.61464,13.5 888.5,209.38536 888.5,451 C888.5,692.61464 692.61464,888.5 451,888.5 C209.38536,888.5 13.5,692.61464 13.5,451 C13.5,209.38536 209.38536,13.5 451,13.5 Z" id="Stroke-1" fill-rule="nonzero"></path>
            <path d="M685.348571,664.752647 C682.272381,668.326607 679.413333,674.752514 676.08381,675.005218 C616.586667,679.9149 561.468571,666.629879 509.028571,635.619462 C514.059048,621.215322 518.293333,609.085519 522.491429,596.991818 C565.12381,623.020352 606.92381,648.507377 648.687619,673.994401 C650.171429,671.828365 651.691429,669.626229 653.175238,667.424092 C612.424762,634.103236 571.710476,600.782381 532.407619,568.652845 C534.651429,539.447458 536.497143,515.007351 538.704762,486.235171 C580.287619,544.537643 619.807619,599.952067 659.327619,655.366491 C661.607619,653.994668 663.887619,652.622845 666.167619,651.251022 C664.937143,646.882849 664.575238,641.937067 662.295238,638.146504 C621.942857,569.735863 581.300952,501.469625 540.84,433.131186 C538.415238,429.051818 536.207619,424.575344 535.194286,419.990567 C521.731429,359.052751 500.125714,301.905499 458,254 C584.739048,351.724329 659.942857,478.32914 677.459048,637.785498 C678.472381,647.207755 683.068571,656.232905 686,665.438559 L685.348571,664.752647 Z" id="Fill-3"></path>
            <path d="M685.70793,666 C689.468046,607.855267 688.238777,550.721747 669.076651,494.238292 C625.401466,365.597585 545.426706,270.363014 420.583647,214.204592 C415.341178,211.857134 410.134865,209.581905 402,205.934316 C528.289257,193.185812 677.53691,312.833949 706.424719,446.566834 C715.499613,476.361496 743.194308,568.959691 685.057141,665.31382 L685.70793,666 Z" id="Fill-5"></path>
            <path d="M422.925295,471.235443 C394.086229,471.235443 370.697348,451.26211 370.697348,426.521181 C370.697348,401.888608 394.086229,381.843038 422.925295,381.843038 C451.764362,381.843038 475.153242,401.888608 475.153242,426.521181 C475.153242,451.26211 451.764362,471.235443 422.925295,471.235443 M422.925295,577.783966 C394.086229,577.783966 370.697348,558.352405 370.697348,534.406076 C370.697348,510.459747 394.086229,491.028186 422.925295,491.028186 C451.764362,491.028186 475.153242,510.459747 475.153242,534.406076 C475.153242,558.352405 451.764362,577.783966 422.925295,577.783966 M401.990804,668.982278 C380.370527,668.621097 364.850128,657.135527 365.211068,634.200506 C365.572007,611.409958 380.478809,600.86346 401.052361,600.646751 C425.16312,601.549705 439.745076,611.771139 439.456325,635.175696 C439.167573,658.616371 423.719362,669.271224 401.990804,668.982278 M369.470154,328.424304 C370.733442,306.825654 384.016016,296.243038 404.69785,295.592911 C426.462502,294.906667 441.802432,304.405738 443.968069,327.52135 C445.772766,346.772321 428.700327,361.941941 407.116145,362.122532 C385.171023,362.339241 368.351242,347.855865 369.470154,328.424304 M355.429607,635.536878 C353.480534,658.219072 338.82639,668.007089 321.212542,669.271224 C294.827864,668.910042 278.152458,652.909705 280.029344,631.744473 C281.906229,610.181941 295.369273,600.682801 316.26767,600.682801 C340.270148,600.646751 357.089929,614.949536 355.429607,635.536878 M243.971487,538.740253 C243.971487,514.793924 267.324273,495.362363 296.199434,495.362363 C325.0385,495.362363 348.427381,514.793924 348.427381,538.740253 C348.427381,562.686582 325.0385,582.118143 296.199434,582.118143 C267.324273,582.118143 243.971487,562.686582 243.971487,538.740253 M296.199434,386.28557 C325.0385,386.28557 348.427381,406.331139 348.427381,431.035949 C348.427381,455.704641 325.0385,475.750211 296.199434,475.750211 C267.324273,475.750211 243.971487,455.704641 243.971487,431.035949 C243.971487,406.331139 267.324273,386.28557 296.199434,386.28557 M274.687439,328.171477 C276.88917,305.561519 291.435032,295.340084 311.034048,295.051139 C335.289183,295.62903 351.495366,310.979241 349.510199,330.591392 C347.41675,352.370633 332.870888,361.508523 312.549993,361.978059 C290.713153,362.519831 272.882741,346.952911 274.687439,328.171477 M515.795031,433.925401 C505.905288,342.979916 465.2635,272.838481 392.281531,221.153418 C370.155939,205.514262 362.973243,187.45519 365.283256,162.93097 C366.402168,150.939747 368.459523,139.165232 369.61453,127.246245 C369.831094,124.790211 367.845926,122.08135 366.366074,118 C358.533687,120.92557 351.459273,123.598312 346.261744,125.512574 C347.488938,153.468017 348.60785,179.111899 349.654575,202.697046 C257.290155,260.99173 212.317092,347.061266 202.246879,434.900591 C186.437729,572.005063 255.557645,713.443713 362.21527,760 C399.428133,745.98616 430.252367,720.992405 455.012818,688.955612 C513.521112,613.251983 525.973525,527.543629 515.795031,433.925401" id="Fill-7"></path>
            <path d="M462.486,435.1 C462.306,435.712 462.054,436.288 461.874,436.9 C461.766,436.612 461.658,436.252 461.514,435.928 C461.658,435.712 461.766,435.388 461.874,435.172 C462.054,435.1 462.306,435.1 462.486,435.1" id="Fill-9"></path>
            <path d="M462.486,435.1 C462.306,435.712 462.054,436.288 461.874,436.9 C461.766,436.612 461.658,436.252 461.514,435.928 C461.658,435.712 461.766,435.388 461.874,435.172 C462.054,435.1 462.306,435.1 462.486,435.1" id="Fill-11"></path>
        </g>
    </g>
</svg>