<?xml version="1.0" encoding="UTF-8"?>
<svg width="660px" height="282px" viewBox="0 0 660 282" version="1.1" xmlns="http://www.w3.org/2000/svg" xmlns:xlink="http://www.w3.org/1999/xlink">
    <title>Group 5</title>
    <defs>
        <polygon id="path-1" points="0 0 114 0 114 124 0 124"></polygon>
        <polygon id="path-3" points="0 0 141 0 141 188 0 188"></polygon>
        <polygon id="path-5" points="0 0 107 0 107 124 0 124"></polygon>
    </defs>
    <g id="Page-1" stroke="none" stroke-width="1" fill="none" fill-rule="evenodd">
        <g id="Group-5">
            <g id="Group-4">
                <path d="M176.41444,105 C162.485689,105 152,100.516981 152,91.7639794 C152,83.0017153 158.748034,78 172.667579,78 C186.587124,78 207.153436,94.1722127 200.819675,100.183533 C197.22011,103.601372 190.333986,105 176.41444,105 Z" id="Fill-3" fill="#FF635A"></path>
                <g id="Group-7">
                    <mask id="mask-2" fill="white">
                        <use xlink:href="#path-1"></use>
                    </mask>
                    <g id="Clip-6"></g>
                    <path d="M95.1210837,123.781829 C95.8299807,123.994084 96.5849099,124.067912 97.3122198,123.929485 C110.956185,121.373191 116.452438,107.022878 112.990811,95.6533703 C108.516474,80.9339177 98.472233,74.7785103 85.9790748,67.7094817 C67.4188633,57.2074522 9.58595182e-14,33.3425593 13.8557134,0 C13.8557134,0 9.73122198,2.79623456 7.81627953,7.74270889 C4.13369789,17.2480607 1.06794867,28.5991119 0.138096811,42.6448841 C-1.87811664,73.1450664 17.8236951,100.8767 47.1830772,109.145433 L95.1210837,123.781829 Z" id="Fill-5" fill="#169973" mask="url(#mask-2)"></path>
                </g>
                <path d="M197.231383,94.6213152 L192,104 L235.253478,99.7278912 C236.222252,99.6371882 236.259158,98.2585034 235.29961,98.1043084 L197.148345,92" id="Fill-8" fill="#2D1010"></path>
                <g id="Group-12" transform="translate(86.000000, 94.000000)">
                    <mask id="mask-4" fill="white">
                        <use xlink:href="#path-3"></use>
                    </mask>
                    <g id="Clip-11"></g>
                    <path d="M140.861566,171.712916 C128.940148,180.425298 114.49636,186.086042 99.3713492,187.588812 C84.3107779,189.036266 68.6426287,186.666867 54.4566016,180.499054 C26.0569304,168.006696 4.93899004,139.83205 1.0633785,108.614985 C-3.6499543,77.8035758 7.4153309,44.0327225 32.0682708,23.6577332 C44.1553919,13.3964829 59.5473693,7.18257214 75.0682269,5.90106828 C82.8102443,5.31102334 90.8836678,5.80887376 97.5670264,6.56486884 C103.826922,6.85067186 110.473457,4.24156689 116.291477,0.277202452 C116.963496,-0.202209062 117.893274,-0.0454783746 118.371972,0.636761087 C118.758613,1.18070877 118.712584,1.92748439 118.325943,2.43455426 C113.511348,8.47329544 106.211205,12.8709741 97.7419353,13.6915054 C89.8065976,13.6915054 83.1600619,13.3688246 76.3570288,14.9545703 C62.8798429,17.9416728 50.6086073,24.5243617 40.6203923,33.5963026 C20.6071393,51.5834538 9.49582546,79.7120025 12.7638589,107.075337 C15.7557206,134.484768 34.1119425,159.054608 58.5807678,171.851208 C83.1508562,184.878293 114.570006,184.905952 140.502542,171.14131 C140.668246,171.049115 140.870772,171.113651 140.962829,171.279602 C141.036475,171.427113 141,171.611502 140.861566,171.712916" id="Fill-10" fill="#2D1010" mask="url(#mask-4)"></path>
                </g>
                <path d="M190,261.225638 C179.880734,262.919986 169.166216,261.784315 159.220946,258.304033 C149.229888,254.878702 140.07218,248.980539 132.489599,241.516249 C125.01691,233.942055 119.119346,224.783416 115.694364,214.782183 C112.205278,204.835902 111.07888,194.120295 112.782213,184 C116.078988,204.158163 124.650602,222.127411 138.313901,235.691355 C151.85815,249.365202 169.843886,257.946846 190,261.225638" id="Fill-13" fill="#2D1010"></path>
                <path d="M122.029101,96.8818928 C125.559179,89.9003332 131.233179,84.001962 138.145478,79.6874127 C145.131706,75.427478 153.670429,73.6616076 161.959643,74.0530119 C170.26734,74.4444162 178.362493,76.8474563 185.542782,80.679577 C188.989691,82.7731347 192.279502,85.094253 195.495385,87.4517809 C198.452518,90.1005865 201.308,92.8313139 204.080312,95.6075534 C205.327853,96.863688 205.30013,98.8662214 204.034107,100.095049 C202.9067,101.18734 201.160143,101.287466 199.912603,100.413634 L199.62613,100.21338 C196.567345,98.065208 193.59173,95.8715237 190.708525,93.5868151 C187.594294,91.6844084 184.618678,89.5635435 181.467483,87.8158779 C175.128128,84.4752881 168.603952,81.4805904 161.506832,80.5885528 C154.409712,80.0879194 147.441966,81.8082777 140.90855,84.7392584 C134.255,87.5519076 128.266804,92.1395296 122.722179,97.3370141 C122.574322,97.5099601 122.306332,97.528165 122.130752,97.3825262 C121.992137,97.2641947 121.973655,97.0366341 122.029101,96.8818928" id="Fill-15" fill="#2D1010"></path>
                <g id="Group-19" transform="translate(10.000000, 0.000000)">
                    <mask id="mask-6" fill="white">
                        <use xlink:href="#path-5"></use>
                    </mask>
                    <g id="Clip-18"></g>
                    <path d="M85.740828,123.7681 C93.715658,122.54301 98.4656431,116.095172 99.4395279,109.380209 C100.698228,102.536289 98.6310198,96.0239723 94.6711675,90.6722664 C90.6837525,85.4403062 85.0976965,81.3505344 78.6388192,77.7950121 C72.0788785,74.0736883 65.601626,70.4997436 58.6741815,67.211346 C45.0030444,60.1371462 31.0470919,52.6484425 18.8275944,42.2121555 C12.7362208,37.0354624 7.01235087,31.0113392 3.09843661,23.5779027 C1.27929337,19.8105228 -0.0620950852,15.6378503 0.00221805979,11.4006993 C0.0205932441,7.16354842 1.50898317,3.16588864 3.77831843,-0.0027633593 C1.42629484,7.6609531 3.68644251,14.9470104 8.21592544,20.3816171 C12.6259697,25.9636029 18.5244038,30.4310337 24.6157774,34.5576503 C37.0006516,42.6819266 50.5155997,49.4061009 64.2234872,56.2500208 C71.0866185,59.7779095 78.0783761,63.6466125 84.6750673,67.8929746 C91.2717584,72.3051383 98.3829548,77.6936889 102.701123,85.5600517 C107.212231,93.0671778 108.406618,102.996849 105.163398,111.056647 C103.509631,115.035884 101.019794,118.794053 97.4458204,121.198176 C93.8994098,123.639143 89.5720539,124.449728 85.740828,123.7681" id="Fill-17" fill="#2D1010" mask="url(#mask-6)"></path>
                </g>
                <path d="M54,83 C42.4138588,81.459195 31.6989954,77.1285301 21.9480989,70.8012008 C17.1838776,67.5007783 12.5772279,63.6897932 9.08284768,58.7756282 C5.57919857,54.0164554 3.13220554,47.7711808 4.29081966,42 C6.68219921,47.3153213 10.1302348,51.0716033 13.9768337,54.5634868 C17.8975839,57.9733155 22.1612839,61.1005115 26.6567067,64.0362464 C35.5270564,70.1082944 45.0740368,75.5512564 54,83" id="Fill-20" fill="#2D1010"></path>
                <path d="M64,115 C52.7653479,114.674097 42.1660982,111.55474 32.1562074,106.647573 C27.2295362,104.049661 22.404161,101.014108 18.2970668,96.9449774 C14.2268076,92.9875847 10.5985675,87.7731377 10,82 C13.7847885,86.2460497 17.9103001,89.0674379 22.2752387,91.7863995 C26.6678035,94.4029345 31.207708,96.8611738 35.8857435,99.1704289 C45.1497271,104.021727 54.8281037,108.407449 64,115" id="Fill-22" fill="#2D1010"></path>
                <path d="M178.983,91.5 C178.983,93.426 177.426,94.983 175.5,94.983 C173.574,94.983 172.017,93.426 172.017,91.5 C172.017,89.574 173.574,88.017 175.5,88.017 C177.426,88.017 178.983,89.574 178.983,91.5" id="Fill-24" fill="#2D1010"></path>
            </g>
            <text id="Humsweet" font-family="MADEKenfolgv2, MADE Kenfolg v2" font-size="96" font-weight="normal" fill="#000000">
                <tspan x="172.064" y="213">Humsweet</tspan>
            </text>
        </g>
    </g>
</svg>