<?xml version="1.0" encoding="UTF-8"?>
<svg width="902px" height="902px" viewBox="0 0 902 902" version="1.1" xmlns="http://www.w3.org/2000/svg" xmlns:xlink="http://www.w3.org/1999/xlink">
    <title>Group 5</title>
    <g id="Page-1" stroke="none" stroke-width="1" fill="none" fill-rule="evenodd">
        <g id="Group-5" fill="#FF635A">
            <path d="M451,0 C201.929247,0 0,201.929247 0,451 C0,700.070753 201.929247,902 451,902 C700.070753,902 902,700.070753 902,451 C902,201.929247 700.070753,0 451,0 Z M451.5,25 C687.03978,25 878,215.96022 878,451.5 C878,687.03978 687.03978,878 451.5,878 C215.96022,878 25,687.03978 25,451.5 C25,215.96022 215.96022,25 451.5,25 Z" id="Stroke-1" fill-rule="nonzero"></path>
            <path d="M448.825522,649.241758 C388.963653,598.415235 325.197748,551.422686 275.816982,488.988721 C256.015435,463.979962 241.102725,436.438669 241.982012,402.882612 C243.177843,356.593544 283.800909,312.485267 329.207298,304.852495 C377.110862,296.832808 412.774749,315.721281 442.811198,350.473256 C444.464258,352.372656 446.222832,354.236881 445.976632,353.955489 C464.125119,340.061733 480.02263,324.092708 499.050404,314.032926 C564.610054,279.351298 656.689005,324.585145 654.613887,411.394736 C653.875286,441.820301 637.907431,466.829061 619.899631,490.325336 C590.214896,529.051981 553.073807,560.28655 516.741662,592.294948 C494.759483,611.640684 471.862845,629.966371 448.825522,649.241758" id="Fill-5"></path>
        </g>
    </g>
</svg>