<?xml version="1.0" encoding="UTF-8"?>
<svg width="903px" height="903px" viewBox="0 0 903 903" version="1.1" xmlns="http://www.w3.org/2000/svg" xmlns:xlink="http://www.w3.org/1999/xlink">
    <title>Group 8</title>
    <g id="Page-1" stroke="none" stroke-width="1" fill="none" fill-rule="evenodd">
        <g id="Group-8" transform="translate(0.500000, 0.500000)" fill="#FC8F1A">
            <path d="M451,0 C201.929247,0 0,201.929247 0,451 C0,700.070753 201.929247,902 451,902 C700.070753,902 902,700.070753 902,451 C902,201.929247 700.070753,0 451,0 Z M451,24.3296703 C686.633847,24.3296703 877.67033,215.366153 877.67033,451 C877.67033,686.633847 686.633847,877.67033 451,877.67033 C215.366153,877.67033 24.3296703,686.633847 24.3296703,451 C24.3296703,215.366153 215.366153,24.3296703 451,24.3296703 Z" id="Stroke-3" fill-rule="nonzero"></path>
            <path d="M451.646726,518.380717 C549.69589,517.466353 626.222066,438.760772 625.941493,343.28014 C625.659374,248.854542 549.942068,169.586275 451.787399,169.410142 C354.371265,169.234597 277.423069,247.869843 277.211625,343.420811 C277.001049,439.11245 353.84374,517.571857 451.646726,518.380717 M553.951251,742.364564 C526.37932,676.213894 499.018399,609.992889 471.587141,543.771883 C468.808846,537.019662 468.808846,536.914158 461.529013,537.230668 C431.073282,538.602213 401.742937,533.467712 373.854491,521.158975 C352.542514,511.769167 333.305465,499.073583 316.776374,482.474372 C310.270242,475.933158 310.129569,476.003493 306.542404,484.619609 C280.86956,546.479805 255.231884,608.340001 229.594208,670.200197 C229.312862,670.938721 229.101852,671.712413 228.75017,672.41577 C227.554448,674.912685 228.679833,675.088524 230.719593,674.490671 C240.320534,671.677245 249.886306,668.86382 259.487246,666.085562 C270.002562,663.061129 280.553046,660.001529 291.103529,657.047432 C298.594373,654.937363 301.759518,656.27374 305.557692,663.131465 C315.264138,680.609872 324.865078,698.158614 334.536355,715.637021 C335.274889,716.973398 336.259601,718.169104 337.103639,719.435145 C337.982846,718.028433 339.108231,716.692055 339.74126,715.179839 C360.560882,665.065695 381.310167,614.951551 402.09462,564.837407 C403.079332,562.481163 404.028875,560.089752 405.400438,557.979682 C408.002891,553.935383 412.504431,552.634174 416.689456,554.322229 C420.663472,555.904781 423.019746,559.738073 422.421886,564.239554 C422.140539,566.314456 421.437174,568.424525 420.628303,570.393923 C396.713873,628.104316 372.86978,685.849877 348.779508,743.489934 C347.618955,746.30336 346.458402,749.327793 344.207632,751.508198 C337.173976,758.295587 330.562339,748.167255 327.467531,742.575571 C316.178513,722.42441 305.030168,702.167746 294.057665,681.805578 C292.017905,678.077789 290.189154,677.057922 285.863456,678.359131 C263.566767,685.111353 241.129404,691.476728 218.762378,697.947607 C217.250142,698.369621 215.737906,698.826803 214.260838,699.248817 C210.321991,700.374187 206.805163,699.600495 203.991701,696.646398 C201.107902,693.657133 200.791387,689.929344 202.233287,686.236723 C204.906076,679.308662 207.860212,672.450937 210.708842,665.593213 C238.421447,598.633683 266.134051,531.709321 293.987328,464.820126 C295.569901,461.022002 295.569901,458.278912 293.037785,454.76213 C276.57903,431.586536 265.852705,405.87886 260.929146,377.885275 C255.864913,349.117998 257.060635,320.52656 264.973498,292.321968 C276.719703,250.577765 299.895604,216.500147 334.21984,190.018779 C357.395737,172.118358 383.455432,160.372306 412.012075,154.253105 C419.25674,152.670554 426.712416,152.072701 434.062586,151.017666 C435.996842,150.736323 437.895929,150.384645 439.795016,150.032967 L463.357763,150.032967 C471.059616,151.158337 478.831806,152.143036 486.533659,153.444246 C513.789076,158.156734 538.688218,168.742247 561.371758,184.391927 C584.582823,200.428454 603.468189,220.614782 617.922352,244.915746 C631.321467,267.458319 639.937695,291.618612 643.384187,317.572463 C649.151784,361.18056 641.344426,402.32691 619.364252,440.378491 C598.33362,476.777185 568.475751,503.856407 529.896148,520.666625 C518.290616,525.695623 505.876213,528.860727 493.743157,532.623684 C488.467915,534.276572 488.327242,533.995229 490.437338,539.129731 C514.844124,598.106165 539.250911,657.0826 563.692865,716.023867 C564.185221,717.219573 565.02926,718.274607 565.732625,719.36481 C566.541496,718.380111 567.561376,717.500915 568.159236,716.375545 C577.865682,698.897138 587.50179,681.383564 597.173067,663.905157 C601.569102,655.992398 604.312228,654.796692 612.893288,657.258439 C631.884159,662.709451 650.87503,668.265967 669.865901,673.716979 C671.448474,674.174161 673.206888,674.138993 674.859797,674.35 C674.367441,672.872951 674.015758,671.395903 673.417897,669.98919 C655.095224,625.677737 636.737382,581.366283 618.37954,537.054829 C613.983505,526.363812 609.481965,515.707962 605.121098,505.016945 C604.241891,502.871708 603.433021,500.5858 603.186843,498.299891 C602.659319,493.728075 605.015593,490.316796 609.270955,488.734244 C613.209803,487.257196 617.043145,488.241895 619.715934,491.758677 C620.876488,493.270893 621.755695,495.09962 622.494228,496.893179 C648.307746,559.105053 674.086095,621.316927 699.794107,683.563969 C700.813987,686.025716 701.658026,688.839142 701.482184,691.44156 C701.024997,697.701432 695.222231,700.97204 688.329248,699.03781 C674.754292,695.204517 661.249673,691.195386 647.709885,687.291758 C637.370411,684.302493 626.925432,681.559403 616.691462,678.253628 C612.822952,676.987586 611.170042,678.007453 609.37646,681.313228 C598.298452,701.816067 587.079771,722.248571 575.685248,742.575571 C573.539983,746.408864 570.33967,753.372092 564.044548,753.372092 C558.136277,753.372092 555.217309,745.4945 553.951251,742.364564" id="Fill-7"></path>
            <path d="M452.107134,498.758242 C408.451744,498.266038 371.726341,483.218654 341.543968,453.264516 C317.623207,429.568402 302.883797,400.809617 297.923757,367.304578 C291.204837,321.951482 302.180245,281.168853 330.955514,245.694997 C356.564799,214.123617 389.98351,194.716711 430.543271,190.075929 C493.687045,182.798339 543.744755,206.283508 580.364626,257.859471 C593.943176,276.94996 601.576713,298.817887 604.953762,322.021797 C605.762846,327.541515 602.843106,332.287769 598.058954,333.447964 C592.43054,334.783947 587.927808,331.971352 586.344817,325.748485 C584.656292,319.103729 583.565787,312.318344 581.736552,305.743902 C563.655271,240.562011 496.255009,197.88088 429.523121,209.55315 C380.837336,218.096407 345.624569,245.132478 326.34725,290.344944 C306.507089,336.893393 311.994793,382.035545 341.403258,423.486165 C361.419307,451.682431 388.893004,469.929142 422.733846,476.398111 C477.821952,486.945342 523.693529,469.753355 559.047007,426.052658 C573.469819,408.192679 582.017973,387.44979 585.465377,364.702927 C585.535732,364.316196 585.57091,363.929464 585.641265,363.542732 C587.153901,356.124512 591.69181,352.327509 597.601645,353.558019 C603.335593,354.78853 605.727669,359.569941 604.566808,366.917846 C598.903216,403.37611 582.299394,433.963082 555.036762,458.643604 C531.608487,479.84354 504.134789,492.816635 472.721201,497.141 C470.188415,497.457417 467.690806,497.984778 465.158019,498.160565 C460.444222,498.476982 455.730425,498.582455 452.107134,498.758242" id="Fill-9"></path>
            <path d="M408.23058,362.92166 C408.055157,364.466958 407.949904,366.047376 407.704312,367.592674 C405.634324,381.500355 403.529253,395.443157 401.49435,409.350838 C401.318927,410.474691 401.389096,411.633664 401.318927,412.792637 C402.546886,412.476554 403.809929,412.336072 404.932634,411.774146 C417.527981,405.557834 430.193497,399.446883 442.648506,392.879367 C448.788299,389.64829 454.226402,389.71853 460.366195,392.949608 C472.786119,399.517124 485.48672,405.592954 498.082067,411.844386 C499.099518,412.371193 500.222223,412.687276 501.309844,413.108721 C501.344928,411.809266 501.555435,410.509811 501.380013,409.210356 C499.34511,395.302675 497.345292,381.359874 495.099882,367.487313 C494.047346,360.990038 495.380558,355.862458 500.327477,351.121204 C510.18623,341.638694 519.588885,331.629378 529.096793,321.795664 C530.254583,320.636691 531.061527,319.126513 532.043894,317.756817 C530.570344,317.300252 529.131878,316.738326 527.588158,316.457362 C513.764853,314.104295 499.906462,311.575626 486.012988,309.538642 C480.22404,308.660632 476.43491,306.061722 473.80357,300.863902 C467.277848,287.974713 460.471448,275.190885 453.735218,262.407057 C453.138781,261.283204 452.191499,260.334953 451.384554,259.316461 C450.612695,260.370073 449.700497,261.353445 449.10406,262.512418 C442.262576,275.471848 435.421092,288.466398 428.719947,301.496069 C426.404368,306.026602 423.036252,308.660632 417.913911,309.36304 C410.546159,310.381532 403.248576,311.716107 395.950994,312.945322 C388.442904,314.209656 380.934814,315.509111 373.426724,316.773446 C370.935722,317.194891 369.742848,318.072901 372.198765,320.250366 C373.040794,321.058136 373.847738,321.901025 374.654683,322.743915 C384.23276,332.542509 393.810837,342.341102 403.423999,352.104575 C406.406184,355.12493 408.791932,358.320887 408.23058,362.92166 M379.040249,429.685553 C381.040067,416.129076 383.039886,402.60772 385.074789,389.051243 C386.022071,382.659329 386.899184,376.267415 388.021889,369.910621 C388.688495,366.152738 387.846467,363.413346 385.00462,360.603713 C371.812835,347.503802 358.901728,334.122927 345.885366,320.847413 C345.21876,320.145005 344.517069,319.442597 343.850463,318.740189 C341.008616,315.754954 339.219305,312.488756 340.692855,308.133826 C342.236575,303.638414 345.745028,301.917514 350.025341,301.179986 C361.743575,299.213243 373.496893,297.2465 385.250211,295.314878 C392.968808,294.015423 400.652321,292.715968 408.406003,291.556994 C411.598695,291.100429 413.458175,289.48489 414.931725,286.569896 C423.492351,269.852583 432.2284,253.240631 440.894279,236.593558 C441.525801,235.399464 442.087153,234.135129 442.788844,232.976156 C447.349833,225.635991 455.770121,225.706232 460.225857,233.221999 C462.19059,236.593558 463.874648,240.140719 465.663959,243.582519 C473.066795,257.806283 480.574885,271.994928 487.802299,286.288933 C489.486356,289.660492 491.731766,291.100429 495.345473,291.697476 C514.606881,294.752951 533.86829,297.984029 553.129698,301.250226 C557.410011,301.952634 560.848295,303.849136 562.286761,308.414789 C563.655057,312.80484 561.725408,316.000797 558.848476,318.915791 C545.586523,332.507388 532.499993,346.239467 518.922279,359.514981 C514.992811,363.307985 514.291121,366.960507 515.06298,371.947605 C518.010081,390.280457 520.606336,408.68355 523.483268,427.016402 C524.149874,431.406453 523.834113,435.339938 520.185322,438.184691 C516.290939,441.205046 512.11588,440.397277 508.046074,438.360293 C491.416006,430.106998 474.715768,421.994184 458.261123,413.459925 C453.489626,411.001497 449.80575,410.650293 444.858831,413.284323 C428.614693,421.853702 412.054794,429.755794 395.600148,437.938849 C394.37219,438.535895 393.179316,439.238304 391.881188,439.659748 C384.864281,441.837214 378.724488,437.025718 379.040249,429.685553" id="Fill-11"></path>
            <polygon id="Fill-13" points="475.32967 529.332678 577.728712 485.276779 605.128799 451.901099 695.197802 687.428006 613.24344 662.343547 566.347138 736.648352"></polygon>
            <polygon id="Fill-15" points="438.384615 529.332678 335.985573 485.276779 308.585487 451.901099 218.516484 687.428006 300.470845 662.343547 347.367148 736.648352"></polygon>
            <polygon id="Fill-17" points="415.832344 301.551332 450.430465 250.054945 481.934445 301.551332 541.10989 312.694237 507.004019 357.898574 513.965836 417.725776 516.040317 430.274725 470.823666 410.097984 445.754093 404.508956 394.243678 430.274725 394.243678 362.081557 354.582418 318.248113"></polygon>
        </g>
    </g>
</svg>